<svg xmlns="http://www.w3.org/2000/svg" width="300" height="300" viewBox="0 0 596.938 385.03">
  <defs>
    <style>
      .cls-1, .cls-5 {
        fill: #80b6e2;
      }

      .cls-1, .cls-2, .cls-3, .cls-4, .cls-5, .cls-6, .cls-7, .cls-8, .cls-9 {
        fill-rule: evenodd;
      }

      .cls-2 {
        fill: #c3d474;
        mix-blend-mode: multiply;
      }

      .cls-3 {
        fill: #7fb8e3;
      }

      .cls-4 {
        fill: #c1d671;
      }

      .cls-5 {
        mix-blend-mode: color;
      }

      .cls-6 {
        fill: #02468f;
      }

      .cls-7 {
        fill: #0086c5;
      }

      .cls-7, .cls-8 {
        opacity: 0.9;
      }

      .cls-8 {
        fill: #9fbc2e;
      }

      .cls-9 {
        fill: #b3c943;
      }
    </style>
  </defs>
  <path id="Shape_1_copy_3" data-name="Shape 1 copy 3" class="cls-1" d="M371.022,3594.67s78.9,30.12,156.677,4.3c0,0,91.462-19.41,142.52-96.75,0,0-72.23-30.88-168.052-.83C502.167,3501.39,407.373,3530.27,371.022,3594.67Z" transform="translate(-371.031 -3487.97)"/>
  <path id="Shape_1_copy_5" data-name="Shape 1 copy 5" class="cls-2" d="M428.615,3701.33s84.467-2.58,146.658-56.11c0,0,77.294-52.88,95.2-143.48,0,0-78.581-.68-155.873,63.65C514.6,3565.39,437.82,3628.26,428.615,3701.33Z" transform="translate(-371.031 -3487.97)"/>
  <path id="Shape_1_copy_6" data-name="Shape 1 copy 6" class="cls-3" d="M906.624,3700.52s-84.055-2.6-145.943-56.44c0,0-76.917-53.2-94.735-144.34,0,0,78.2-.68,155.112,64.03C821.058,3563.77,897.464,3627.02,906.624,3700.52Z" transform="translate(-371.031 -3487.97)"/>
  <path id="Shape_1_copy_4" data-name="Shape 1 copy 4" class="cls-4" d="M967.977,3593.72s-79.038,29.94-156.947,4.28c0,0-91.619-19.29-142.765-96.16,0,0,72.354-30.69,168.342-.83C836.607,3501.01,931.565,3529.72,967.977,3593.72Z" transform="translate(-371.031 -3487.97)"/>
  <path id="Shape_1_copy_8" data-name="Shape 1 copy 8" class="cls-5" d="M371.022,3594.67s78.9,30.12,156.677,4.3c0,0,91.462-19.41,142.52-96.75,0,0-72.23-30.88-168.052-.83C502.167,3501.39,407.373,3530.27,371.022,3594.67Z" transform="translate(-371.031 -3487.97)"/>
  <path class="cls-6" d="M670.643,3873s100.692-79.54,96.759-177.18c0,0,15.733-111.03-99.119-196.08,0,0-98.332,71.66-96.759,191.35C571.524,3691.09,571.524,3809.21,670.643,3873Z" transform="translate(-371.031 -3487.97)"/>
  <path id="Shape_1_copy" data-name="Shape 1 copy" class="cls-7" d="M842.205,3830.53s52.346-116.89,3.867-201.72c0,0-37.265-105.75-177.978-128.36,0,0-53.889,108.82,2.666,214.29C670.76,3714.74,725.2,3819.54,842.205,3830.53Z" transform="translate(-371.031 -3487.97)"/>
  <path id="Shape_1_copy_2" data-name="Shape 1 copy 2" class="cls-8" d="M500.461,3832.46s125.485-25.11,166.4-113.84c0,0,64.443-91.72,1.232-219.58,0,0-119.811,19.17-172.84,126.46C495.249,3625.5,441.539,3730.67,500.461,3832.46Z" transform="translate(-371.031 -3487.97)"/>
  <path id="Shape_1_copy_7" data-name="Shape 1 copy 7" class="cls-9" d="M670.37,3714.38s34.719-45.39,32.9-101.32c0,0,4.969-63.56-35.443-112.44,0,0-33.933,40.89-32.832,109.43C634.992,3610.05,635.538,3677.7,670.37,3714.38Z" transform="translate(-371.031 -3487.97)"/>
</svg>
